<svg xmlns="http://www.w3.org/2000/svg" height="24" viewBox="0 -960 960 960" width="24"><path d="M809.474-108.001q-127.936 0-254.051-56.077-126.115-56.077-230.691-160.346-104.577-104.269-160.654-230.691-56.077-126.423-56.077-254.359 0-20.305 11-31.415t31-11.11h168.46q15.543 0 27.425 9.885 11.883 9.885 16.036 24.423L388.845-670q2.385 14.385-1 26.154-3.384 11.769-10.154 17.769l-101.384 99.923q21.308 37.846 48.462 72.269 27.154 34.424 60.538 68.578 31.924 30.923 66.001 57.654 34.077 26.731 71.077 48.038l105.769-102.538q8.385-8.769 17.347-11.192 8.963-2.423 19.115-.423l151.075 32.615q15.154 4 25.731 15.461 10.577 11.462 10.577 26.001v169.69q0 20-11.11 31t-31.415 11ZM235.923-606.922l63.385-60.308q1.923-1.539 2.5-4.231.577-2.693-.192-5l-16.385-83.385q-.769-3.077-2.692-4.615-1.923-1.539-5-1.539H203q-2.307 0-3.846 1.539-1.539 1.538-1.539 3.846 3.077 43 12.923 79.308 9.847 36.308 25.385 74.385Zm367.999 369.691q37.77 17.539 77.962 26.847 40.193 9.307 78.731 13.153 2.308 2 3.846-.538 1.539-2.539 1.539-4.847v-76.153q0-3.077-1.539-5.001-1.538-1.923-4.615-2.692l-84-18.077q-2.307-.769-4.038-.192-1.731.577-3.654 2.5l-64.232 65ZM235.923-606.922Zm367.999 369.691Z"/></svg>